<?xml version="1.0" standalone="no"?>
<!DOCTYPE svg PUBLIC "-//W3C//DTD SVG 20010904//EN"
 "http://www.w3.org/TR/2001/REC-SVG-20010904/DTD/svg10.dtd">
<svg version="1.0" xmlns="http://www.w3.org/2000/svg"
 width="256.000000pt" height="128.000000pt" viewBox="0 0 256.000000 128.000000"
 preserveAspectRatio="xMidYMid meet">
<metadata>
Created by potrace 1.15, written by Peter Selinger 2001-2017
</metadata>
<g transform="translate(0.000000,128.000000) scale(0.100000,-0.100000)"
fill="#000000" stroke="none">
<path d="M1192 1119 c-171 -12 -283 -26 -292 -35 -16 -17 -67 -524 -55 -544 2
-4 26 -10 52 -14 67 -8 543 -56 564 -56 15 0 18 15 24 108 7 108 29 374 41
490 l7 62 -114 -1 c-63 -1 -165 -6 -227 -10z"/>
<path d="M635 389 c-44 -4 -105 -16 -135 -26 -82 -27 -76 -44 44 -119 133 -84
238 -117 571 -183 175 -35 297 -46 343 -32 28 8 36 7 53 -10 27 -27 148 -28
172 -1 10 10 17 24 17 31 0 7 11 22 25 33 14 11 25 28 25 39 0 10 4 19 10 19
5 0 22 11 37 25 16 14 52 44 81 67 28 23 52 48 52 55 0 9 -8 5 -22 -10 -13
-13 -52 -40 -88 -59 -39 -21 -66 -43 -68 -54 -2 -10 -15 -31 -28 -45 -13 -14
-22 -28 -19 -31 4 -3 -5 -15 -19 -26 -15 -11 -26 -25 -26 -31 0 -20 -38 -12
-43 10 -5 17 -11 20 -31 17 -14 -3 -26 -1 -26 3 0 5 -4 9 -10 9 -5 0 -7 -7 -4
-15 4 -8 1 -15 -6 -15 -14 0 -9 40 5 42 6 0 19 7 30 14 11 8 27 14 37 14 10 0
36 19 58 43 23 26 56 49 80 57 22 7 46 20 53 29 10 12 9 14 -8 7 -22 -8 -253
-37 -300 -38 -16 0 -138 19 -270 41 -132 23 -255 44 -272 47 -18 2 -32 10 -30
17 1 7 -11 13 -26 15 -19 2 -31 11 -37 28 -5 13 -16 24 -25 24 -8 0 -15 5 -15
10 0 11 -66 11 -185 -1z"/>
</g>
</svg>
